<svg id="Layer_1" data-name="Layer 1" xmlns="http://www.w3.org/2000/svg" viewBox="0 0 189.33 189.33"><defs><style>.cls-1{fill:#5d6a84;}.cls-2{fill:none;stroke:#5d6a84;stroke-miterlimit:10;stroke-width:0.75px;}</style></defs><title>add_staff2</title><path class="cls-1" d="M69.9,105.84v2.52a4.88,4.88,0,0,0,4.86,4.91h0a4.88,4.88,0,0,0,4.88-4.86v-2.57Zm0,0"/><path class="cls-1" d="M109.65,105.84v2.54a4.88,4.88,0,0,0,4.88,4.89h0a4.88,4.88,0,0,0,4.88-4.88v-2.55Zm0,0"/><path class="cls-1" d="M104.47,44.81c-2.69-1.59-4.57-3.14-9.77-3.14s-7,1.52-9.62,3a10.12,10.12,0,1,0,19.39.14Zm0,0"/><path class="cls-1" d="M119.45,72.49A11.58,11.58,0,0,0,107.89,61h-5.46L96.68,76,98,69.62a1.92,1.92,0,0,0-.19-1.32L96,64.9l1.66-3a.68.68,0,0,0-.59-1H92.49a.68.68,0,0,0-.59,1l1.66,3-1.88,3.41a1.91,1.91,0,0,0-.2,1.3L92.67,76C91.58,73.23,88.07,63.8,87,61H81.62a11.58,11.58,0,0,0-11.56,11.5l-.15,29.33h9.77l.15-29.28a1,1,0,0,1,1.94,0v82.08a5.86,5.86,0,1,0,11.72,0V107.79H96v46.84a5.86,5.86,0,1,0,11.72,0c0-77.49-.1-33.12-.11-82.09a1,1,0,0,1,2,0l0,29.29h9.77l0-29.3a.24.24,0,0,1,0,0ZM94.7,96.14a1.47,1.47,0,1,1,1.47-1.47,1.47,1.47,0,0,1-1.47,1.47Zm0-7.09a1.47,1.47,0,1,1,1.47-1.47,1.47,1.47,0,0,1-1.47,1.47Zm0-7.09a1.47,1.47,0,1,1,1.47-1.47A1.47,1.47,0,0,1,94.7,82Zm0,0"/><path class="cls-1" d="M102.32,28.84H87.22A1.22,1.22,0,0,0,86,30.06V40.15a18.15,18.15,0,0,1,8.7-2,18,18,0,0,1,8.83,2V30.06a1.22,1.22,0,0,0-1.22-1.22Zm0,0"/><rect class="cls-2" x="2.35" y="2.35" width="184.63" height="184.63" rx="92.32" ry="92.32"/></svg>