<svg id="Layer_1" data-name="Layer 1" xmlns="http://www.w3.org/2000/svg" viewBox="0 0 189.33 189.33"><defs><style>.cls-1{fill:none;stroke:#5d6a84;stroke-miterlimit:10;stroke-width:0.75px;}.cls-2{fill:#5d6a84;}</style></defs><title>add_staff1</title><rect class="cls-1" x="2.35" y="2.35" width="184.63" height="184.63" rx="92.32" ry="92.32"/><path class="cls-2" d="M64.53,137.91l0-.07a4.86,4.86,0,0,1,2.68-2.42l4.07-1.87.22-.18c-.16-.18-.31-.36-.45-.55a15.5,15.5,0,0,1-2.93-9.19l-.56-.26-2.1-1.77L62.1,125h-.39l-3.37-3.35-2.1,1.77-4.37,2a2.85,2.85,0,0,0-1.6,1.37s-4.75,11.3-2.17,11.3H64.47l.06-.14Zm0,0"/><path class="cls-2" d="M54,111.37c.08,7,4,11.14,7.87,11.14,3.33,0,7.8-4.16,7.87-11.14,0-4.84-2.26-7.74-7.87-7.74S54,106.53,54,111.37Zm0,0"/><path class="cls-2" d="M89,135.43a4.79,4.79,0,0,1,2.71,2.49l.06.13h5.13l.06-.14,0-.07a4.86,4.86,0,0,1,2.67-2.42l4.07-1.87.22-.18c-.16-.18-.31-.36-.45-.55a15.5,15.5,0,0,1-2.93-9.19l-.56-.26-2.1-1.77L94.52,125h-.39l-3.37-3.35-2.1,1.77-.56.26a15.32,15.32,0,0,1-3.18,9.23l-.34.4.35.29Zm0,0"/><path class="cls-2" d="M94.32,122.5c3.33,0,7.8-4.16,7.87-11.14,0-4.84-2.26-7.74-7.87-7.74s-7.92,2.9-7.87,7.74c.08,7,4,11.14,7.87,11.14Zm0,0"/><path class="cls-2" d="M138.37,126.75a2.82,2.82,0,0,0-1.6-1.37l-4.37-2-2.1-1.77L126.93,125h-.39l-3.37-3.35-2.1,1.77-.56.26a15.32,15.32,0,0,1-3.18,9.23l-.34.4.35.29,4.07,1.87a4.78,4.78,0,0,1,2.71,2.49l.06.13h16.37c2.57,0-2.17-11.3-2.17-11.3Zm0,0"/><path class="cls-2" d="M118.86,111.37c.08,7,4,11.14,7.87,11.14,3.33,0,7.8-4.16,7.87-11.14,0-4.84-2.26-7.74-7.87-7.74s-7.92,2.9-7.87,7.74Zm0,0"/><path class="cls-2" d="M88.14,137.37l-4.37-2-2.1-1.77-3.37,3.35h-.39l-3.37-3.35-2.1,1.77-4.37,2a2.83,2.83,0,0,0-1.6,1.37S61.73,150,64.31,150H91.92c2.57,0-2.17-11.3-2.17-11.3a2.8,2.8,0,0,0-1.6-1.37Zm0,0"/><path class="cls-2" d="M78.11,115.61c-5.62,0-7.92,2.9-7.87,7.74.08,7,4,11.14,7.87,11.14,3.33,0,7.8-4.16,7.87-11.14,0-4.84-2.26-7.74-7.87-7.74Zm0,0"/><path class="cls-2" d="M120.56,137.37l-4.37-2-2.1-1.77-3.37,3.35h-.39L107,133.59l-2.1,1.77-4.37,2a2.83,2.83,0,0,0-1.6,1.37S94.15,150,96.72,150h27.61c2.57,0-2.17-11.3-2.17-11.3a2.81,2.81,0,0,0-1.6-1.37Zm0,0"/><path class="cls-2" d="M110.53,134.49c3.33,0,7.8-4.16,7.87-11.14,0-4.84-2.26-7.74-7.87-7.74s-7.92,2.9-7.87,7.74c.08,7,4,11.14,7.87,11.14Zm0,0"/><path class="cls-2" d="M91.59,85a.81.81,0,0,0,.85-.08l8.32-6.36a.81.81,0,0,0,0-1.28l-8.32-6.36a.81.81,0,0,0-1.3.64V84.24a.81.81,0,0,0,.45.72Zm0,0"/><path class="cls-2" d="M51.71,100.86h85.22a1.13,1.13,0,0,0,1.13-1.13V56a1.13,1.13,0,0,0-1.13-1.13H51.71A1.13,1.13,0,0,0,50.58,56V99.73a1.13,1.13,0,0,0,1.13,1.13ZM94.32,64.79A13.09,13.09,0,1,1,81.23,77.89,13.09,13.09,0,0,1,94.32,64.79Zm0,0"/></svg>