<svg id="Layer_1" data-name="Layer 1" xmlns="http://www.w3.org/2000/svg" viewBox="0 0 159.88 159.89"><defs><style>.cls-1{fill:#272262;}.cls-2{fill:#fff;}</style></defs><title>st_1</title><path d="M79.11,80.67A6.48,6.48,0,0,0,72.51,87a6.35,6.35,0,0,0,3.3,5.48v7.22a3.32,3.32,0,0,0,6.63,0V92.51A6.32,6.32,0,0,0,85.74,87a6.49,6.49,0,0,0-6.63-6.36Zm0,0"/><path d="M79.11,14.94a66,66,0,1,0,66,66,66,66,0,0,0-66-66Zm0,27.49c13.16,0,22,8.83,22,22H94.26a15.13,15.13,0,0,0-30.26,0H57.12c0-13.16,8.83-22,22-22Zm27.49,63.23a8.23,8.23,0,0,1-8.24,8.24H59.89a8.26,8.26,0,0,1-8.28-8.24V78.17a8.26,8.26,0,0,1,8.28-8.24H98.36a8.23,8.23,0,0,1,8.24,8.24Zm0,0"/><circle class="cls-1" cx="80.44" cy="80.45" r="79.44"/><path class="cls-2" d="M65.34,66.7H58.47c0-13.15,8.83-22,22-22s22,8.84,22,22H95.61a15.13,15.13,0,0,0-30.27,0Z"/><path class="cls-2" d="M99.71,72.21H61.24A8.26,8.26,0,0,0,53,80.45v27.49a8.26,8.26,0,0,0,8.28,8.24H99.71a8.23,8.23,0,0,0,8.24-8.24V80.45A8.23,8.23,0,0,0,99.71,72.21ZM83.79,94.79V102a3.32,3.32,0,0,1-6.63,0V94.79a6.36,6.36,0,0,1-3.3-5.48,6.62,6.62,0,0,1,13.24,0A6.33,6.33,0,0,1,83.79,94.79Z"/></svg>