<svg id="Layer_1" data-name="Layer 1" xmlns="http://www.w3.org/2000/svg" viewBox="0 0 159.88 159.89"><defs><style>.cls-1{fill:#272262;}.cls-2{fill:#fff;}</style></defs><title>st_2</title><circle class="cls-1" cx="79.94" cy="79.94" r="79.44"/><rect class="cls-2" x="65.18" y="51.17" width="29.52" height="16.28"/><path class="cls-2" d="M59.38,74.62h41.11A1.65,1.65,0,0,0,102.15,73V45.65A1.65,1.65,0,0,0,100.49,44H84.93l-3.53-6.58a1.65,1.65,0,0,0-2.85-.12L74.21,44H59.38a1.65,1.65,0,0,0-1.66,1.65V73a1.65,1.65,0,0,0,1.66,1.65ZM79.8,41.46,81.17,44h-3ZM61.87,49.52a1.65,1.65,0,0,1,1.66-1.65H96.36A1.65,1.65,0,0,1,98,49.52V69.11a1.66,1.66,0,0,1-1.66,1.66H63.52a1.66,1.66,0,0,1-1.66-1.66Zm0,0"/><path class="cls-2" d="M96.63,89.52A1.65,1.65,0,0,0,95,91.17a15.45,15.45,0,1,1-30.9,0,1.65,1.65,0,0,0-1.65-1.65,1.62,1.62,0,0,0-1.38.79v-2a3.86,3.86,0,1,0-3.31,0v34.33a1.66,1.66,0,0,0,3.31,0V94.26a18.75,18.75,0,0,0,37.24-3.09,1.65,1.65,0,0,0-1.66-1.65Zm0,0"/><path class="cls-2" d="M55.25,89.52a1.65,1.65,0,0,0-1.66,1.65,15.47,15.47,0,0,1-15.45,15.45,1.65,1.65,0,1,0,0,3.31A18.78,18.78,0,0,0,56.9,91.17a1.65,1.65,0,0,0-1.66-1.65Zm0,0"/><path class="cls-2" d="M104.36,84.83a3.86,3.86,0,1,0-5.52,3.48v34.32a1.66,1.66,0,1,0,3.31,0V88.31a3.86,3.86,0,0,0,2.21-3.48Zm0,0"/><path class="cls-2" d="M121.73,106.63a15.47,15.47,0,0,1-15.45-15.45,1.66,1.66,0,0,0-3.31,0,18.78,18.78,0,0,0,18.76,18.76,1.65,1.65,0,1,0,0-3.31Zm0,0"/></svg>