<svg id="Layer_1" data-name="Layer 1" xmlns="http://www.w3.org/2000/svg" viewBox="0 0 159.88 159.89"><defs><style>.cls-1{fill:#272262;}.cls-2{fill:#fff;}</style></defs><title>st_3</title><circle class="cls-1" cx="79.94" cy="79.94" r="79.44"/><path class="cls-2" d="M68.34,54.59H63a7.72,7.72,0,0,0-7.7-7.3H37.6A7.72,7.72,0,0,0,29.88,55V67.48a7.72,7.72,0,0,0,7.71,7.71H55.27A7.72,7.72,0,0,0,63,67.48V64.63l6.74-6.74a1.94,1.94,0,0,0-1.37-3.31Zm0,0"/><path class="cls-2" d="M88.87,62.79a9.36,9.36,0,1,0-9.36-9.36,9.37,9.37,0,0,0,9.36,9.36Zm0,0"/><path class="cls-2" d="M99.16,67.33h0l-2.67-.82a.83.83,0,0,0-1,.51L89.82,82.44a1,1,0,0,1-1.91,0L82.3,67a.83.83,0,0,0-.78-.55.81.81,0,0,0-.24,0l-2.67.82a8.3,8.3,0,0,0-5.7,7.88V91.52A.83.83,0,0,0,73,92l5.86,8.92v22.58a.83.83,0,0,0,.83.83H98a.83.83,0,0,0,.83-.83V100.9L104.7,92a.84.84,0,0,0,.14-.46V75.16a8.24,8.24,0,0,0-5.68-7.83Zm0,0"/><path class="cls-2" d="M90.93,66.32a1.16,1.16,0,0,0-.86-.36h-2.4a1.16,1.16,0,0,0-.86.36,1.11,1.11,0,0,0-.15,1.31L88,69.56l-.6,5.06,1.18,3.15a.36.36,0,0,0,.68,0l1.18-3.15-.6-5.06,1.28-1.93a1.11,1.11,0,0,0-.15-1.31Zm0,0"/></svg>