<svg id="Layer_1" data-name="Layer 1" xmlns="http://www.w3.org/2000/svg" viewBox="0 0 159.88 159.89"><defs><style>.cls-1{fill:#272262;}.cls-2{fill:#fff;}</style></defs><title>st_4</title><circle class="cls-1" cx="79.94" cy="79.94" r="79.44"/><path class="cls-2" d="M95,48.84H64.9a6.36,6.36,0,0,0-6.35,6.35v50.22A6.36,6.36,0,0,0,63,111.47v.47a2.25,2.25,0,0,0,2.25,2.25h5a2.25,2.25,0,0,0,2.25-2.25v-.17h15v.17a2.25,2.25,0,0,0,2.25,2.25h5a2.25,2.25,0,0,0,2.25-2.25v-.47a6.36,6.36,0,0,0,4.43-6.05V55.19A6.36,6.36,0,0,0,95,48.84Zm-15,23.94a7.27,7.27,0,1,1,7.27-7.27,7.28,7.28,0,0,1-7.27,7.27Zm0,6.8A11.77,11.77,0,1,1,68.17,91.35,11.78,11.78,0,0,1,79.94,79.58Zm5.62,11.77a5.62,5.62,0,1,1-5.62-5.62,5.63,5.63,0,0,1,5.62,5.62ZM83.85,65.51a3.91,3.91,0,1,1-3.91-3.91,3.91,3.91,0,0,1,3.91,3.91Zm0,0"/></svg>