<svg id="Layer_1" data-name="Layer 1" xmlns="http://www.w3.org/2000/svg" viewBox="0 0 273.55 73.49"><defs><style>.cls-1,.cls-5{fill:#292561;}.cls-2,.cls-4{fill:#f79420;}.cls-3{fill:#29abe2;}.cls-4{font-size:47.1px;font-family:Montserrat-Bold, Montserrat;font-weight:700;}.cls-5{letter-spacing:0em;}</style></defs><title>logo_colored_logo</title><path class="cls-1" d="M42.22,45c-3.15,8.46-10.65,12.82-19,11.26C15.31,54.8,9.6,47.66,9.46,39a9.48,9.48,0,0,1,.13-1.39c.23-1.76.87-3.19,3-3.2a3.1,3.1,0,0,1,3.35,3.14,16.21,16.21,0,0,0,3.14,8.61,14.1,14.1,0,0,0,21.9.49C41.4,46.14,41.8,45.58,42.22,45Z"/><path class="cls-1" d="M11.75,53.58A4.28,4.28,0,0,1,7,57.26a4.48,4.48,0,0,1-3.62-5.11,4.26,4.26,0,0,1,5-3.42A4,4,0,0,1,11.75,53.58Z"/><path class="cls-2" d="M5.31,43.32c-5.39-7.24-5-15.91.86-22,5.59-5.87,14.68-6.78,22-2.19a9.48,9.48,0,0,1,1.09.87c1.35,1.16,2.21,2.47,1.07,4.23a3.1,3.1,0,0,1-4.46,1.11,16.21,16.21,0,0,0-8.94-2A14.1,14.1,0,0,0,4.63,41.37C4.84,42,5.08,42.67,5.31,43.32Z"/><path class="cls-2" d="M14.71,13.11a4.28,4.28,0,0,1-.48-6,4.48,4.48,0,0,1,6.25-.26,4.26,4.26,0,0,1,.18,6A4,4,0,0,1,14.71,13.11Z"/><path class="cls-3" d="M25.33,10.93c9-.71,16.11,4.26,18.19,12.45,2,7.85-2.08,16-9.86,19.8a9.48,9.48,0,0,1-1.31.46c-1.7.53-3.26.56-4.15-1.34a3.1,3.1,0,0,1,1.44-4.36,16.21,16.21,0,0,0,6.49-6.48,14.1,14.1,0,0,0-8.78-20.07C26.68,11.22,26,11.08,25.33,10.93Z"/><path class="cls-3" d="M45.91,35a4.28,4.28,0,0,1,5.35,2.79,4.48,4.48,0,0,1-3.11,5.43A4.26,4.26,0,0,1,43,40.14,4,4,0,0,1,45.91,35Z"/><path class="cls-2" d="M72.06,39.67V20.25H63.33V39.67a14.32,14.32,0,0,0,3,9.27,18.36,18.36,0,0,0,10.88-1.56c.48-.24.94-.49,1.37-.75C74.8,46.52,72.06,43.87,72.06,39.67Z"/><path class="cls-2" d="M101.12,11.69c-1.26.64-5.43,2.95-6.74,7.59-.1.33-.17.66-.23,1h0V39.67c0,8.83-5.92,14.41-15.32,14.41-5.46,0-9.78-1.86-12.46-5.14a18.36,18.36,0,0,0,10.88-1.56c.48-.24.94-.49,1.37-.75h.26c3.87,0,6.54-2.63,6.54-7V21.25a4.73,4.73,0,0,1,.1-1h0a11,11,0,0,1,2.86-5.39,12.06,12.06,0,0,1,4.88-3A14.56,14.56,0,0,1,101.12,11.69Z"/><text class="cls-4" transform="translate(95.72 53.2)">ae<tspan class="cls-1" x="56.71" y="0">Sta</tspan><tspan class="cls-5" x="136.04" y="0">f</tspan><tspan class="cls-1" x="154.55" y="0">f</tspan></text></svg>