<svg id="Layer_1" data-name="Layer 1" xmlns="http://www.w3.org/2000/svg" viewBox="0 0 273.55 73.49"><defs><style>.cls-1,.cls-2{fill:#fff;}.cls-2{font-size:46.95px;font-family:Montserrat-Bold, Montserrat;font-weight:700;}.cls-3{letter-spacing:0em;}.cls-4{letter-spacing:0em;}</style></defs><title>uae_white_logo</title><path class="cls-1" d="M42.54,45C39.4,53.45,31.93,57.79,23.64,56.23,15.71,54.74,10,47.62,9.88,39A9.45,9.45,0,0,1,10,37.62c.23-1.76.87-3.18,3-3.19a3.09,3.09,0,0,1,3.34,3.13,16.16,16.16,0,0,0,3.13,8.58,14.06,14.06,0,0,0,21.83.49C41.71,46.11,42.12,45.55,42.54,45Z"/><path class="cls-1" d="M12.17,53.53A4.27,4.27,0,0,1,7.4,57.19,4.47,4.47,0,0,1,3.8,52.1a4.25,4.25,0,0,1,4.94-3.41A4,4,0,0,1,12.17,53.53Z"/><path class="cls-1" d="M5.75,43.3c-5.38-7.22-5-15.85.85-22,5.57-5.85,14.63-6.75,21.94-2.18a9.45,9.45,0,0,1,1.09.86c1.35,1.15,2.2,2.46,1.07,4.21a3.09,3.09,0,0,1-4.44,1.1,16.16,16.16,0,0,0-8.91-2A14.06,14.06,0,0,0,5.07,41.36C5.28,42,5.52,42.65,5.75,43.3Z"/><path class="cls-1" d="M15.11,13.18a4.27,4.27,0,0,1-.48-6,4.47,4.47,0,0,1,6.23-.26,4.25,4.25,0,0,1,.18,6A4,4,0,0,1,15.11,13.18Z"/><path class="cls-1" d="M25.7,11c9-.71,16.06,4.24,18.13,12.41,2,7.82-2.07,16-9.83,19.74a9.45,9.45,0,0,1-1.31.46c-1.69.53-3.25.55-4.14-1.34A3.09,3.09,0,0,1,30,37.94a16.16,16.16,0,0,0,6.47-6.46,14.06,14.06,0,0,0-8.75-20C27,11.3,26.37,11.17,25.7,11Z"/><path class="cls-1" d="M46.21,35a4.27,4.27,0,0,1,5.33,2.78,4.47,4.47,0,0,1-3.1,5.41,4.25,4.25,0,0,1-5.17-3A4,4,0,0,1,46.21,35Z"/><path class="cls-1" d="M72.28,39.66V20.31h-8.7V39.66a14.27,14.27,0,0,0,3,9.24,18.3,18.3,0,0,0,10.85-1.56c.48-.24.93-.49,1.37-.75C75,46.49,72.28,43.85,72.28,39.66Z"/><path class="cls-1" d="M101.24,11.77c-1.26.64-5.41,2.94-6.72,7.56-.09.33-.17.66-.23,1h0V39.66C94.29,48.46,88.39,54,79,54c-5.44,0-9.75-1.86-12.42-5.12a18.3,18.3,0,0,0,10.85-1.56c.48-.24.93-.49,1.37-.75h.26c3.85,0,6.52-2.62,6.52-6.94V21.3a4.71,4.71,0,0,1,.1-1h0a11,11,0,0,1,2.85-5.38,12,12,0,0,1,4.87-3A14.51,14.51,0,0,1,101.24,11.77Z"/><text class="cls-2" transform="translate(95.86 53.15)">aeSta<tspan class="cls-3" x="135.58" y="0">f</tspan><tspan class="cls-4" x="154.03" y="0">f</tspan></text></svg>