<svg id="Layer_1" data-name="Layer 1" xmlns="http://www.w3.org/2000/svg" viewBox="0 0 509.83 720"><defs><style>.cls-1{font-size:14.79px;font-family:Montserrat-UltraLight, Montserrat;}.cls-1,.cls-5{fill:#5d6a84;}.cls-2{letter-spacing:0em;}.cls-3{fill:none;stroke:#5d6a84;stroke-miterlimit:10;stroke-width:0.5px;}.cls-4{fill:#fff;}</style></defs><title>upload_img</title><text class="cls-1" transform="translate(206.59 674.78)">Pr<tspan class="cls-2" x="15" y="0">o</tspan><tspan x="24.01" y="0">file Image</tspan></text><rect class="cls-3" x="5.62" y="4.47" width="500.41" height="712.14" rx="32.55" ry="32.55"/><line class="cls-3" x1="446.03" y1="110.47" x2="64.03" y2="613.47"/><line class="cls-3" x1="441.29" y1="617" x2="68.76" y2="106.94"/><circle class="cls-4" cx="255.03" cy="359.14" r="101.33"/><path class="cls-5" d="M278.49,341.1A25.61,25.61,0,0,0,231,332.59a14.71,14.71,0,0,0-2.69-.25,14,14,0,0,0-14,14,15.32,15.32,0,0,0,.29,2.91,19.5,19.5,0,0,0-8,15.72,20.85,20.85,0,0,0,5.29,13.8A18.88,18.88,0,0,0,225,385.36h15.78a2.45,2.45,0,1,0,0-4.91H225.18c-7.44-.45-13.69-7.53-13.69-15.49a14.57,14.57,0,0,1,7.22-12.54,2.47,2.47,0,0,0,1.07-3,8.92,8.92,0,0,1-.54-3.13,9.12,9.12,0,0,1,9.11-9.11,9,9,0,0,1,3.11.54,2.47,2.47,0,0,0,3.07-1.25,20.7,20.7,0,0,1,39.32,6.82,2.45,2.45,0,0,0,2,2.18c8.09,1.38,14.2,8.85,14.2,17.38,0,9-7.11,16.89-15.87,17.56h-13.4a2.45,2.45,0,1,0,0,4.91h13.67a21.75,21.75,0,0,0,14.58-7.2,22.63,22.63,0,0,0-10.58-37Zm0,0"/><path class="cls-5" d="M265.52,367.31a2.45,2.45,0,0,0,0-3.47l-13-13a2.48,2.48,0,0,0-1.73-.73,2.41,2.41,0,0,0-1.73.73l-13,13a2.46,2.46,0,0,0,1.73,4.2,2.4,2.4,0,0,0,1.73-.73l8.82-8.82V399a2.45,2.45,0,1,0,4.91,0V358.49l8.82,8.82a2.43,2.43,0,0,0,3.45,0Zm0,0"/></svg>